<svg width="25" height="25" viewBox="0 0 25 25" fill="none" xmlns="http://www.w3.org/2000/svg">
<path d="M24.8568 7.41817C24.7992 6.14125 24.5929 5.26756 24.3003 4.50429C23.9932 3.71702 23.5854 3.04495 22.9186 2.38249C22.2517 1.72002 21.5849 1.30238 20.7981 0.999954C20.0352 0.702326 19.1621 0.500706 17.8859 0.443101C16.605 0.385495 16.1972 0.371094 12.9444 0.371094C9.68686 0.371094 9.27906 0.385495 8.00291 0.443101C6.72675 0.500706 5.85359 0.707126 5.09078 0.999954C4.29917 1.30718 3.62751 1.71522 2.96545 2.38249C2.30338 3.04975 1.88599 3.71702 1.58374 4.50429C1.29109 5.26756 1.0848 6.14125 1.02722 7.41817C0.969654 8.69989 0.955261 9.10793 0.955261 12.3626C0.955261 15.6222 0.969654 16.0302 1.02722 17.3071C1.0848 18.584 1.29109 19.4577 1.58374 20.221C1.89079 21.0083 2.29858 21.6803 2.96545 22.3428C3.62751 23.0101 4.29917 23.4229 5.08598 23.7253C5.84879 24.023 6.72195 24.2246 7.99811 24.2822C9.27906 24.3398 9.68686 24.3542 12.9396 24.3542C16.1972 24.3542 16.605 24.3398 17.8811 24.2822C19.1573 24.2246 20.0304 24.0182 20.7933 23.7253C21.5801 23.4181 22.2517 23.0101 22.9138 22.3428C23.5758 21.6755 23.9932 21.0083 24.2955 20.221C24.5929 19.4577 24.7944 18.584 24.852 17.3071C24.9096 16.0254 24.924 15.6174 24.924 12.3626C24.924 9.10793 24.9144 8.69509 24.8568 7.41817ZM22.7027 17.2111C22.6499 18.3824 22.4532 19.0209 22.2901 19.4385C22.0742 19.9954 21.8103 20.3986 21.3882 20.8211C20.966 21.2435 20.5678 21.4979 20.0065 21.7235C19.5843 21.8868 18.9462 22.0836 17.7804 22.1364C16.5186 22.194 16.1396 22.2084 12.9348 22.2084C9.73003 22.2084 9.35103 22.194 8.08926 22.1364C6.91865 22.0836 6.28057 21.8868 5.86318 21.7235C5.30667 21.5075 4.90367 21.2435 4.48148 20.8211C4.0593 20.3986 3.80502 20.0002 3.57954 19.4385C3.41642 19.0161 3.21972 18.3776 3.16695 17.2111C3.10937 15.9486 3.09498 15.5694 3.09498 12.3626C3.09498 9.15594 3.10937 8.7767 3.16695 7.51418C3.21972 6.34287 3.41642 5.70441 3.57954 5.28677C3.79543 4.72991 4.0593 4.32667 4.48148 3.90423C4.90367 3.48179 5.30187 3.22737 5.86318 3.00175C6.28537 2.83853 6.92345 2.64171 8.08926 2.58891C9.35103 2.5313 9.73003 2.5169 12.9348 2.5169C16.1396 2.5169 16.5186 2.5313 17.7804 2.58891C18.951 2.64171 19.5891 2.83853 20.0065 3.00175C20.563 3.21777 20.966 3.48179 21.3882 3.90423C21.8103 4.32667 22.0646 4.72511 22.2901 5.28677C22.4532 5.70921 22.6499 6.34767 22.7027 7.51418C22.7603 8.7767 22.7747 9.15594 22.7747 12.3626C22.7747 15.5694 22.7555 15.9486 22.7027 17.2111Z" fill="white"/>
<path d="M12.9349 6.19922C9.52861 6.19922 6.7748 8.95948 6.7748 12.363C6.7748 15.7713 9.5334 18.5268 12.9349 18.5268C16.3364 18.5268 19.095 15.7617 19.095 12.363C19.095 8.95468 16.3412 6.19922 12.9349 6.19922ZM12.9349 16.3618C10.728 16.3618 8.9385 14.5712 8.9385 12.363C8.9385 10.1548 10.728 8.36423 12.9349 8.36423C15.1418 8.36423 16.9313 10.1548 16.9313 12.363C16.9313 14.5712 15.1418 16.3618 12.9349 16.3618Z" fill="white"/>
<path d="M19.3348 7.39883C20.1297 7.39883 20.7741 6.75406 20.7741 5.95869C20.7741 5.16333 20.1297 4.51855 19.3348 4.51855C18.5399 4.51855 17.8956 5.16333 17.8956 5.95869C17.8956 6.75406 18.5399 7.39883 19.3348 7.39883Z" fill="white"/>
<path d="M0.940857 12.3626C0.940857 15.6222 0.95525 16.0302 1.01282 17.3071C1.07039 18.584 1.27669 19.4577 1.56934 20.221C1.87638 21.0083 2.28418 21.6803 2.95104 22.3428C3.61311 23.0053 4.28477 23.4229 5.07157 23.7253C5.83439 24.023 6.70755 24.2246 7.9837 24.2822C9.26466 24.3398 9.67245 24.3542 12.9252 24.3542C16.1828 24.3542 16.5906 24.3398 17.8667 24.2822C19.1429 24.2246 20.016 24.0182 20.7788 23.7253C21.5657 23.4181 22.2373 23.0101 22.8994 22.3428C23.5614 21.6803 23.9788 21.0083 24.2811 20.221C24.5785 19.4577 24.78 18.584 24.8376 17.3071C24.8952 16.0254 24.9096 15.6174 24.9096 12.3626C24.9096 9.10313 24.8952 8.69509 24.8376 7.41817C24.78 6.14125 24.5737 5.26756 24.2811 4.50429C23.974 3.71702 23.5662 3.04495 22.8994 2.38249C22.2421 1.71522 21.5704 1.30238 20.7836 0.999954C20.0208 0.702326 19.1477 0.500706 17.8715 0.443101C16.5906 0.385495 16.1828 0.371094 12.93 0.371094C9.67245 0.371094 9.26466 0.385495 7.9885 0.443101C6.71235 0.500706 5.83919 0.707126 5.07637 0.999954C4.28957 1.30718 3.61791 1.71522 2.95584 2.38249C2.29377 3.04975 1.87638 3.71702 1.57414 4.50429C1.27669 5.26756 1.07039 6.14125 1.01282 7.41817C0.95525 8.69509 0.940857 9.10313 0.940857 12.3626ZM3.10457 12.3626C3.10457 9.16074 3.11896 8.7767 3.17653 7.51418C3.2293 6.34287 3.426 5.70441 3.58912 5.28677C3.80501 4.72991 4.06888 4.32667 4.49107 3.90423C4.91325 3.48179 5.31145 3.22737 5.87277 3.00175C6.29496 2.83853 6.93303 2.64171 8.09885 2.58891C9.36061 2.5313 9.73962 2.5169 12.9444 2.5169C16.1492 2.5169 16.5282 2.5313 17.79 2.58891C18.9606 2.64171 19.5986 2.83853 20.016 3.00175C20.5726 3.21777 20.9755 3.48179 21.3977 3.90423C21.8199 4.32667 22.0742 4.72511 22.2997 5.28677C22.4628 5.70921 22.6595 6.34767 22.7123 7.51418C22.7698 8.7767 22.7842 9.15594 22.7842 12.3626C22.7842 15.5694 22.7698 15.9486 22.7123 17.2111C22.6595 18.3824 22.4628 19.0209 22.2997 19.4385C22.0838 19.9954 21.8199 20.3986 21.3977 20.8211C20.9755 21.2435 20.5774 21.4979 20.016 21.7235C19.5938 21.8868 18.9558 22.0836 17.79 22.1364C16.5282 22.194 16.1492 22.2084 12.9444 22.2084C9.73962 22.2084 9.36061 22.194 8.09885 22.1364C6.92824 22.0836 6.29016 21.8868 5.87277 21.7235C5.31625 21.5075 4.91325 21.2435 4.49107 20.8211C4.06888 20.3986 3.81461 20.0002 3.58912 19.4385C3.426 19.0161 3.2293 18.3776 3.17653 17.2111C3.11416 15.9486 3.10457 15.5646 3.10457 12.3626Z" fill="white"/>
</svg>
