<svg width="362.981934" height="30.029297" viewBox="0 0 362.982 30.0293" fill="none" xmlns="http://www.w3.org/2000/svg" xmlns:xlink="http://www.w3.org/1999/xlink">
	<desc>
			Created with Pixso.
	</desc>
	<defs/>
	<path id="Vector" d="M346.943 23.2832C348.404 23.2832 349.714 22.9375 350.904 22.2598C352.078 21.5664 353.012 20.6016 353.705 19.3672C354.398 18.1016 354.729 16.6562 354.729 15.0449C354.729 13.418 354.383 11.9883 353.705 10.7539C353.012 9.48828 352.078 8.50977 350.904 7.83203C349.729 7.13867 348.404 6.80664 346.943 6.80664C345.482 6.80664 344.172 7.1543 342.982 7.83203C341.807 8.52344 340.874 9.48828 340.181 10.7539C339.488 11.9883 339.157 13.418 339.157 15.0449C339.157 16.6719 339.503 18.1016 340.181 19.3672C340.874 20.6016 341.807 21.5664 342.982 22.2598C344.172 22.9375 345.497 23.2832 346.943 23.2832ZM346.943 30.0293C343.885 30.0293 341.145 29.3828 338.705 28.0879C336.28 26.793 334.383 25.0156 332.982 22.7266C331.611 20.4512 330.919 17.877 330.919 15.0156C330.919 12.1543 331.611 9.59375 332.982 7.30469C334.383 5.0293 336.295 3.23828 338.705 1.94336C341.145 0.648438 343.901 0 346.943 0C349.985 0 352.726 0.648438 355.151 1.94336C357.59 3.23828 359.503 5.01562 360.873 7.30469C362.274 9.57812 362.982 12.1543 362.982 15.0156C362.982 17.877 362.289 20.4375 360.873 22.7266C359.503 25 357.59 26.793 355.151 28.0879C352.726 29.3984 350 30.0293 346.943 30.0293ZM319.654 11.2793C319.654 9.93945 319.232 8.88477 318.373 8.14844C317.515 7.41016 316.265 7.0332 314.578 7.0332L310.045 7.0332L310.045 15.4824L314.578 15.4824C316.25 15.4824 317.515 15.1211 318.373 14.4121C319.232 13.6738 319.654 12.6348 319.654 11.2793ZM314.503 21.793L310.045 21.793L310.045 29.457L301.883 29.457L301.883 0.601562L315.075 0.601562C317.681 0.601562 319.955 1.03906 321.883 1.92773C323.81 2.78711 325.286 4.02148 326.34 5.63281C327.38 7.22852 327.907 9.11133 327.907 11.2793C327.907 13.373 327.41 15.1953 326.416 16.7617C325.452 18.2988 324.066 19.5039 322.259 20.3906L328.479 29.457L319.744 29.457L314.503 21.793ZM289.142 11.2793C289.142 9.93945 288.72 8.88477 287.861 8.14844C287.003 7.41016 285.753 7.0332 284.066 7.0332L279.533 7.0332L279.533 15.4824L284.066 15.4824C285.738 15.4824 287.003 15.1211 287.861 14.4121C288.72 13.6738 289.142 12.6348 289.142 11.2793ZM283.991 21.793L279.533 21.793L279.533 29.457L271.37 29.457L271.37 0.601562L284.563 0.601562C287.169 0.601562 289.443 1.03906 291.37 1.92773C293.298 2.78711 294.774 4.02148 295.828 5.63281C296.867 7.22852 297.395 9.11133 297.395 11.2793C297.395 13.373 296.898 15.1953 295.904 16.7617C294.94 18.2988 293.554 19.5039 291.747 20.3906L297.967 29.457L289.232 29.457L283.991 21.793ZM251.069 23.2832C252.53 23.2832 253.84 22.9375 255.03 22.2598C256.205 21.5664 257.139 20.6016 257.831 19.3672C258.524 18.1016 258.855 16.6562 258.855 15.0449C258.855 13.418 258.509 11.9883 257.831 10.7539C257.139 9.48828 256.205 8.50977 255.03 7.83203C253.855 7.13867 252.53 6.80664 251.069 6.80664C249.608 6.80664 248.298 7.1543 247.108 7.83203C245.934 8.52344 245 9.48828 244.307 10.7539C243.614 11.9883 243.283 13.418 243.283 15.0449C243.283 16.6719 243.63 18.1016 244.307 19.3672C245 20.6016 245.934 21.5664 247.108 22.2598C248.298 22.9375 249.608 23.2832 251.069 23.2832ZM251.069 30.0293C248.012 30.0293 245.271 29.3828 242.831 28.0879C240.407 26.793 238.509 25.0156 237.108 22.7266C235.738 20.4512 235.045 17.877 235.045 15.0156C235.045 12.1543 235.738 9.59375 237.108 7.30469C238.509 5.0293 240.422 3.23828 242.831 1.94336C245.271 0.648438 248.027 0 251.069 0C254.127 0 256.852 0.648438 259.277 1.94336C261.717 3.23828 263.63 5.01562 265 7.30469C266.401 9.57812 267.108 12.1543 267.108 15.0156C267.108 17.877 266.416 20.4375 265 22.7266C263.63 25 261.717 26.793 259.277 28.0879C256.852 29.3984 254.127 30.0293 251.069 30.0293ZM233.193 22.9824L233.193 29.457L207.349 29.457L207.349 24.3516L221.898 7.07812L207.726 7.07812L207.726 0.601562L232.575 0.601562L232.575 5.70703L218.027 22.9824L233.193 22.9824ZM194.819 0.601562L202.982 0.601562L202.982 29.457L194.819 29.457L194.819 0.601562ZM193.133 0.601562L180.768 29.457L172.726 29.457L160.407 0.601562L169.232 0.601562L177.063 19.3984L185.06 0.601562L193.133 0.601562ZM159.744 23.1484L159.744 29.457L136.581 29.457L136.581 0.601562L159.217 0.601562L159.217 6.91211L144.669 6.91211L144.669 11.7773L157.485 11.7773L157.485 17.877L144.669 17.877L144.669 23.1484L159.744 23.1484ZM123.825 11.2793C123.825 9.93945 123.404 8.88477 122.545 8.14844C121.687 7.41016 120.437 7.0332 118.75 7.0332L114.217 7.0332L114.217 15.4824L118.75 15.4824C120.422 15.4824 121.687 15.1211 122.545 14.4121C123.404 13.6738 123.825 12.6348 123.825 11.2793ZM118.675 21.793L114.217 21.793L114.217 29.457L106.054 29.457L106.054 0.601562L119.247 0.601562C121.852 0.601562 124.126 1.03906 126.054 1.92773C127.982 2.78711 129.458 4.02148 130.512 5.63281C131.551 7.22852 132.078 9.11133 132.078 11.2793C132.078 13.373 131.581 15.1953 130.587 16.7617C129.624 18.2988 128.238 19.5039 126.431 20.3906L132.651 29.457L123.916 29.457L118.675 21.793ZM89.4579 23.6152C90.8284 23.6152 91.9578 23.1484 92.8313 22.2129C93.7048 21.25 94.1566 19.9395 94.1566 18.2539C94.1566 16.5957 93.7198 15.3164 92.8313 14.3828C91.9578 13.4492 90.8284 12.9824 89.4579 12.9824C88.0874 12.9824 86.9579 13.4492 86.0844 14.3828C85.2108 15.3164 84.759 16.6113 84.759 18.2539C84.759 19.9238 85.1958 21.25 86.0844 22.2129C86.9579 23.1484 88.0723 23.6152 89.4579 23.6152ZM89.4579 29.834C87.0632 29.834 84.9097 29.3379 82.9819 28.3438C81.0542 27.3496 79.5482 25.9785 78.4487 24.2168C77.3795 22.4551 76.8374 20.4668 76.8374 18.2383C76.8374 16.0391 77.3645 14.0664 78.4487 12.3047C79.5482 10.543 81.0392 9.1875 82.9368 8.22266C84.8645 7.22852 87.0331 6.73242 89.4427 6.73242C91.8674 6.73242 94.0361 7.22852 95.9487 8.22266C97.8916 9.20117 99.3826 10.5566 100.452 12.3184C101.521 14.0508 102.063 16.0234 102.063 18.2539C102.063 20.4824 101.521 22.4707 100.452 24.2324C99.3826 25.9941 97.8765 27.3652 95.9639 28.3594C94.0361 29.3379 91.8674 29.834 89.4579 29.834ZM75.8735 28.5547C75.2108 28.9609 74.3976 29.2773 73.4489 29.5039C72.515 29.7285 71.506 29.834 70.4368 29.834C67.5302 29.834 65.2861 29.127 63.7198 27.6953C62.1536 26.2656 61.3705 24.1406 61.3705 21.3105L61.3705 13.7949L58.1174 13.7949L58.1174 7.95117L61.3705 7.95117L61.3705 2.13867L69.2018 2.13867L69.2018 7.95117L74.3073 7.95117L74.3073 13.8105L69.2018 13.8105L69.2018 21.2344C69.2018 22.0332 69.4126 22.666 69.8193 23.1328C70.256 23.5684 70.8434 23.7949 71.5511 23.7949C72.4548 23.7949 73.2531 23.5547 73.9458 23.0879L75.8735 28.5547ZM57.8163 7.12305L48.5844 29.457L40.5121 29.457L31.3253 7.12305L39.3674 7.12305L44.7289 20.7676L50.3765 7.12305L57.8163 7.12305ZM20.4066 17.832L16.7018 8.59961L12.9969 17.832L20.4066 17.832ZM22.8011 23.8555L10.6024 23.8555L8.32837 29.457L0 29.457L12.741 0.601562L20.7831 0.601562L33.5542 29.457L25.0602 29.457L22.8011 23.8555Z" fill="#201D17" fill-opacity="1.000000" fill-rule="nonzero"/>
</svg>
