<svg width="102" height="102" viewBox="0 0 102 102" fill="none" xmlns="http://www.w3.org/2000/svg">
<circle cx="51" cy="51" r="51" fill="url(#paint0_linear_194_888)"/>
<g clip-path="url(#clip0_194_888)">
<path d="M78.6869 53.6404L65.5418 40.5777C65.6226 40.583 65.7034 40.583 65.7841 40.5777C66.775 40.583 67.5882 39.7904 67.5989 38.8049C67.6097 37.8195 66.8019 37.0054 65.8111 37C64.8202 36.9947 64.007 37.7873 63.9963 38.7728C63.9963 38.8638 64.0017 38.9495 64.0124 39.0406L51.002 52.023L37.9699 39.062C38.1046 38.0872 37.4206 37.1928 36.4406 37.0589C35.4605 36.925 34.5611 37.6052 34.4265 38.58C34.2919 39.5547 34.9758 40.4491 35.9559 40.583C36.0367 40.5938 36.1228 40.5991 36.2036 40.5991C36.2844 40.6045 36.3652 40.6045 36.4459 40.5991L23.317 53.6404C22.8969 54.0582 22.8969 54.7384 23.317 55.1561L28.1151 59.9281L32.9133 64.7001C32.9618 64.7483 33.021 64.7965 33.0802 64.834C33.1179 64.8608 33.161 64.8822 33.2041 64.8983L33.2687 64.9358L33.4087 64.9786H33.468C33.608 65.0054 33.748 65.0054 33.888 64.9786H33.9419L34.0872 64.9358L34.1519 64.8983C34.195 64.8822 34.2326 64.8608 34.2703 64.834C34.3296 64.7965 34.3888 64.7537 34.4373 64.7001L38.9877 60.1798L43.5328 55.6542L47.5716 51.6374L49.478 53.5387L40.2802 62.6863C39.8601 63.1041 39.8655 63.7843 40.2855 64.202C40.4902 64.4002 40.7594 64.5126 41.0448 64.5126C41.3303 64.5126 41.6049 64.4002 41.8041 64.1967L51.002 55.0543L60.1998 64.1967C60.399 64.4002 60.6737 64.5126 60.9591 64.5126C61.5514 64.5126 62.0361 64.036 62.0361 63.4415C62.0361 63.1576 61.923 62.8845 61.7238 62.6863L52.5259 53.5387L54.4323 51.6374L58.4711 55.6542L63.0162 60.1798L67.5666 64.7001C67.6151 64.7537 67.6743 64.7965 67.7336 64.834C67.7713 64.8608 67.809 64.8822 67.852 64.8983L67.9167 64.9358L68.0621 64.9786H68.1159C68.2559 65.0054 68.3959 65.0054 68.5359 64.9786H68.5952L68.7352 64.9358L68.7998 64.8983C68.8429 64.8822 68.886 64.8608 68.9237 64.834C68.9829 64.7965 69.0421 64.7483 69.0906 64.7001L73.8888 59.9281L78.6869 55.1561C79.107 54.7384 79.107 54.0582 78.6869 53.6404ZM30.1453 49.8914L33.1718 46.8814L36.4621 50.127L33.441 53.1316L30.1453 49.8914ZM33.4249 56.1791L36.699 59.4354L33.678 62.4453L30.3984 59.1676L33.4249 56.1791ZM42.7735 53.3833L39.4939 50.127L42.7735 46.8654L46.0476 50.127L42.7735 53.3833ZM64.034 51.6374L67.055 54.6473L63.7809 57.909L60.7544 54.899L64.034 51.6374ZM64.034 48.6114L60.7544 45.3497L64.034 42.0934L67.3081 45.3497L64.034 48.6114ZM73.1295 57.6573L70.103 54.6473L73.3826 51.391L76.4036 54.3956L73.1295 57.6573Z" fill="#FFF555"/>
</g>
<defs>
<linearGradient id="paint0_linear_194_888" x1="51" y1="0" x2="51" y2="102" gradientUnits="userSpaceOnUse">
<stop stop-color="#201D17"/>
<stop offset="1" stop-color="#46433D"/>
</linearGradient>
<clipPath id="clip0_194_888">
<rect width="56" height="28" fill="white" transform="translate(23 37)"/>
</clipPath>
</defs>
</svg>
