<svg width="25" height="25" viewBox="0 0 25 25" fill="none" xmlns="http://www.w3.org/2000/svg">
<rect x="0.386993" y="0.371094" width="23.9831" height="23.9831" rx="11.9916" fill="white"/>
<path fill-rule="evenodd" clip-rule="evenodd" d="M5.81522 12.2359C9.311 10.7128 11.6421 9.70875 12.8084 9.22362C16.1386 7.83849 16.8306 7.59787 17.2816 7.58993C17.3808 7.58818 17.6026 7.61277 17.7463 7.72935C17.8676 7.82778 17.901 7.96076 17.917 8.05409C17.9329 8.14742 17.9528 8.36003 17.937 8.52616C17.7565 10.4223 16.9757 15.0237 16.5784 17.1475C16.4103 18.0461 16.0793 18.3474 15.7589 18.3769C15.0625 18.441 14.5337 17.9167 13.8593 17.4745C12.8039 16.7827 12.2076 16.352 11.1832 15.6769C9.99922 14.8967 10.7667 14.4679 11.4414 13.7671C11.618 13.5837 14.6863 10.7929 14.7456 10.5398C14.7531 10.5081 14.76 10.3901 14.6898 10.3278C14.6197 10.2654 14.5162 10.2868 14.4416 10.3037C14.3357 10.3277 12.6497 11.4421 9.38345 13.6469C8.90488 13.9755 8.4714 14.1357 8.08302 14.1273C7.65486 14.118 6.83125 13.8852 6.21898 13.6862C5.46801 13.442 4.87115 13.313 4.92312 12.8984C4.95019 12.6825 5.24756 12.4616 5.81522 12.2359Z" fill="#201D17"/>
</svg>
