<svg width="23" height="23" viewBox="0 0 23 23" fill="none" xmlns="http://www.w3.org/2000/svg">
<path fill-rule="evenodd" clip-rule="evenodd" d="M1.58113 9.90135C7.75513 6.65552 11.8721 4.51567 13.932 3.4818C19.8136 0.529891 21.0357 0.0171128 21.8323 0.000180535C22.0075 -0.00354352 22.3992 0.0488489 22.6529 0.297298C22.8672 0.507084 22.9262 0.790475 22.9544 0.989374C22.9826 1.18827 23.0177 1.64137 22.9898 1.99541C22.6711 6.03635 21.2919 15.8426 20.5903 20.3686C20.2935 22.2836 19.7089 22.9258 19.143 22.9886C17.9131 23.1252 16.9792 22.0078 15.788 21.0656C13.924 19.5912 12.8709 18.6734 11.0616 17.2347C8.97061 15.572 10.3261 14.6581 11.5178 13.1646C11.8296 12.7738 17.2485 6.82622 17.3534 6.28669C17.3665 6.21921 17.3787 5.96768 17.2549 5.83487C17.131 5.70205 16.9483 5.74747 16.8164 5.78359C16.6294 5.83479 13.6517 8.20974 7.88309 12.9084C7.03787 13.6088 6.27229 13.95 5.58635 13.9321C4.83017 13.9124 3.37557 13.4162 2.29422 12.9921C0.967909 12.4718 -0.0862189 12.1968 0.00557197 11.3133C0.0533823 10.8531 0.578568 10.3824 1.58113 9.90135Z" fill="#201D17"/>
</svg>
