<svg width="20" height="19" viewBox="0 0 20 19" fill="none" xmlns="http://www.w3.org/2000/svg">
<path d="M0.930176 18.7338L2.23026 13.9951C1.42649 12.6042 1.00484 11.029 1.00923 9.41878C1.00923 4.37297 5.1203 0.270508 10.1669 0.270508C12.6177 0.270508 14.9192 1.22263 16.6453 2.95137C18.3758 4.68011 19.3289 6.97924 19.3245 9.42317C19.3245 14.469 15.2135 18.5714 10.1625 18.5714H10.1581C8.62524 18.5714 7.11873 18.1853 5.77912 17.457L0.930176 18.7338ZM6.0119 15.8028L6.28861 15.9696C7.45693 16.6628 8.79653 17.027 10.1625 17.0314H10.1669C14.3614 17.0314 17.7785 13.6222 17.7785 9.42755C17.7785 7.39607 16.9879 5.48743 15.5517 4.04828C14.1154 2.60913 12.2005 1.81935 10.1669 1.81935C5.97238 1.81496 2.55527 5.22417 2.55527 9.41878C2.55527 10.8535 2.95496 12.2532 3.7192 13.4642L3.89928 13.7538L3.13065 16.5575L6.0119 15.8028Z" fill="white"/>
<path d="M1.25049 18.4135L2.50665 13.8372C1.72923 12.4989 1.32076 10.9764 1.32076 9.42318C1.32515 4.55288 5.29128 0.59082 10.1666 0.59082C12.5339 0.59082 14.752 1.51223 16.421 3.17954C18.09 4.84685 19.008 7.067 19.008 9.42756C19.008 14.2979 15.0375 18.2599 10.1666 18.2599H10.1622C8.68202 18.2599 7.22822 17.887 5.93692 17.1849L1.25049 18.4135Z" fill="#201D17"/>
<path d="M0.930176 18.7338L2.23026 13.9951C1.42649 12.6042 1.00484 11.029 1.00923 9.41878C1.00923 4.37297 5.1203 0.270508 10.1669 0.270508C12.6177 0.270508 14.9192 1.22263 16.6453 2.95137C18.3758 4.68011 19.3289 6.97924 19.3245 9.42317C19.3245 14.469 15.2135 18.5714 10.1625 18.5714H10.1581C8.62524 18.5714 7.11873 18.1853 5.77912 17.457L0.930176 18.7338ZM6.0119 15.8028L6.28861 15.9696C7.45693 16.6628 8.79653 17.027 10.1625 17.0314H10.1669C14.3614 17.0314 17.7785 13.6222 17.7785 9.42755C17.7785 7.39607 16.9879 5.48743 15.5517 4.04828C14.1154 2.60913 12.2005 1.81935 10.1669 1.81935C5.97238 1.81496 2.55527 5.22417 2.55527 9.41878C2.55527 10.8535 2.95496 12.2532 3.7192 13.4642L3.89928 13.7538L3.13065 16.5575L6.0119 15.8028Z" fill="white"/>
<path fill-rule="evenodd" clip-rule="evenodd" d="M7.87812 5.59312C7.70682 5.2114 7.52675 5.20262 7.36424 5.19824C7.23247 5.19385 7.07875 5.19385 6.92502 5.19385C6.77129 5.19385 6.52533 5.25089 6.31451 5.47905C6.10369 5.7072 5.51514 6.26005 5.51514 7.38768C5.51514 8.51092 6.33647 9.59906 6.45067 9.75263C6.56486 9.90619 8.03624 12.2887 10.3597 13.2057C12.2922 13.9692 12.6875 13.8156 13.1048 13.7761C13.522 13.7366 14.4576 13.2233 14.6508 12.688C14.8397 12.1527 14.8397 11.6964 14.7826 11.5998C14.7255 11.5033 14.5718 11.4463 14.3434 11.3322C14.115 11.2181 12.9906 10.6653 12.7798 10.5863C12.5689 10.5117 12.4152 10.4722 12.2659 10.7004C12.1122 10.9285 11.6729 11.4419 11.5412 11.5954C11.4094 11.749 11.2733 11.7666 11.0449 11.6525C10.8165 11.5384 10.0786 11.2971 9.20455 10.5161C8.52377 9.91058 8.06259 9.16029 7.93082 8.93213C7.79906 8.70397 7.91765 8.58112 8.03184 8.46704C8.13286 8.36613 8.26024 8.19939 8.37443 8.06776C8.48863 7.93613 8.52816 7.83961 8.60283 7.68604C8.67749 7.53247 8.64235 7.40084 8.58526 7.28676C8.52816 7.17707 8.08016 6.04505 7.87812 5.59312Z" fill="white"/>
</svg>
