<svg width="128" height="128" viewBox="0 0 128 128" fill="none" xmlns="http://www.w3.org/2000/svg">
<g clip-path="url(#clip0_60_155)">
<path d="M127.099 64.2574C126.35 64.2574 126.35 64.2574 126.35 64.2575V64.2581V64.2607L126.35 64.2715L126.35 64.3151L126.349 64.4875C126.348 64.6394 126.347 64.8638 126.345 65.1533C126.34 65.7323 126.329 66.5712 126.309 67.6091C126.268 69.6852 126.187 72.556 126.025 75.7348C125.699 82.1135 125.048 89.6573 123.767 94.5295C122.375 99.6956 118.3 103.771 113.134 105.162C110.732 105.794 106.463 106.28 101.349 106.647C96.253 107.012 90.3798 107.256 84.8094 107.419C79.2401 107.582 73.9795 107.664 70.1108 107.704C68.1766 107.725 66.5907 107.735 65.4885 107.74C64.9374 107.743 64.5073 107.744 64.2151 107.744L63.8823 107.745L63.7974 107.745L63.7761 107.745H63.7708H63.7695C63.7692 107.745 63.7691 107.745 63.7691 108.495C63.7691 107.745 63.7689 107.745 63.7687 107.745H63.7674H63.7621L63.7408 107.745L63.6561 107.745L63.3242 107.744C63.0328 107.744 62.6037 107.742 62.054 107.74C60.9546 107.734 59.3724 107.724 57.4423 107.703C53.5819 107.66 48.3312 107.576 42.7688 107.406C37.2051 107.237 31.3356 106.983 26.2356 106.603C21.1148 106.221 16.8328 105.715 14.4068 105.058L14.4057 105.058C9.23873 103.667 5.16276 99.5914 3.77127 94.4245C2.4899 89.6058 1.83966 82.0627 1.51349 75.6697C1.35097 72.4843 1.26968 69.6037 1.22903 67.5195C1.20871 66.4775 1.19856 65.6349 1.19349 65.0533C1.19095 64.7625 1.18968 64.5369 1.18905 64.3843L1.1885 64.2111L1.18843 64.1673L1.18842 64.1564L1.18842 64.1538L1.18842 64.1532C1.18842 64.1531 1.18842 64.153 0.43895 64.153C1.18842 64.153 1.18842 64.153 1.18842 64.1529L1.18842 64.1523L1.18842 64.1497L1.18843 64.1388L1.1885 64.0953L1.18905 63.9229C1.18968 63.771 1.19095 63.5466 1.19349 63.2571C1.19856 62.6781 1.20871 61.8392 1.22903 60.8013C1.26968 58.7252 1.35097 55.8544 1.51348 52.6755C1.8396 46.2968 2.48973 38.7529 3.77152 33.8806C5.16355 28.7132 9.3442 24.5345 14.4055 23.1436C16.8075 22.5122 21.0759 22.0265 26.1895 21.6595C31.2851 21.2937 37.1583 21.0496 42.7287 20.8867C48.298 20.7239 53.5586 20.6424 57.4273 20.6017C59.3615 20.5813 60.9474 20.5712 62.0496 20.5661C62.6007 20.5635 63.0308 20.5623 63.323 20.5616L63.6558 20.5611L63.7407 20.561L63.762 20.561L63.7673 20.561L63.7687 20.561C63.7689 20.561 63.7691 20.561 63.7691 19.8115C63.7691 20.561 63.7692 20.561 63.7695 20.561L63.7708 20.561L63.7761 20.561L63.7974 20.561L63.8823 20.5611L64.215 20.5617C64.5072 20.5623 64.9373 20.5636 65.4884 20.5663C66.5905 20.5716 68.1764 20.5822 70.1105 20.6033C73.9791 20.6457 79.2395 20.7304 84.8085 20.8997C90.3787 21.0691 96.2514 21.323 101.346 21.7033C106.463 22.0852 110.731 22.5906 113.129 23.2471L113.132 23.2479C118.3 24.6391 122.376 28.7153 123.767 33.8827L123.768 33.8856C125.1 38.7531 125.751 46.32 126.064 52.726C126.22 55.9174 126.291 58.8008 126.324 60.8864C126.34 61.929 126.346 62.7718 126.349 63.3535C126.35 63.6443 126.35 63.8699 126.35 64.0224L126.35 64.1956L126.35 64.2394L126.35 64.2502L126.35 64.2528L126.35 64.2534C126.35 64.2535 126.35 64.2536 127.099 64.2574ZM127.099 64.2574H126.35V64.2536L127.099 64.2574Z" stroke="white" stroke-width="1.49894"/>
<path d="M51.8944 46.4611L82.6125 64.1532L51.8944 81.8452V46.4611Z" stroke="white" stroke-width="1.49894"/>
</g>
<defs>
<clipPath id="clip0_60_155">
<rect x="0.43895" y="0.8125" width="126.661" height="126.661" rx="5.33999" fill="white"/>
</clipPath>
</defs>
</svg>
