<svg width="29" height="30" viewBox="0 0 29 30" fill="none" xmlns="http://www.w3.org/2000/svg">
<g clip-path="url(#clip0_1297_9462)">
<path d="M28.1067 8.16992C27.7783 6.95002 26.8164 5.98818 25.5965 5.65975C23.3679 5.0498 14.4533 5.0498 14.4533 5.0498C14.4533 5.0498 5.53868 5.0498 3.31003 5.63629C2.1136 5.96472 1.1283 6.95002 0.799866 8.16992C0.213379 10.3986 0.213379 15.0201 0.213379 15.0201C0.213379 15.0201 0.213379 19.6651 0.799866 21.8703C1.1283 23.0901 2.09014 24.052 3.31003 24.3804C5.56214 24.9904 14.4533 24.9904 14.4533 24.9904C14.4533 24.9904 23.3679 24.9904 25.5965 24.4039C26.8164 24.0754 27.7783 23.1136 28.1067 21.8937C28.6932 19.6651 28.6932 15.0435 28.6932 15.0435C28.6932 15.0435 28.7166 10.3986 28.1067 8.16992Z" fill="#ED0505"/>
<path d="M11.6146 19.2897L19.0278 15.0201L11.6146 10.7505V19.2897Z" fill="white"/>
</g>
<defs>
<clipPath id="clip0_1297_9462">
<rect x="0.213379" y="0.777832" width="28.4799" height="28.4799" rx="5.33999" fill="white"/>
</clipPath>
</defs>
</svg>
