<svg width="30" height="30" viewBox="0 0 30 30" fill="none" xmlns="http://www.w3.org/2000/svg">
<g clip-path="url(#clip0_1297_9343)">
<path d="M28.7265 8.26367C28.398 7.04377 27.4362 6.08193 26.2163 5.7535C23.9876 5.14355 15.073 5.14355 15.073 5.14355C15.073 5.14355 6.15843 5.14355 3.92978 5.73004C2.73335 6.05847 1.74805 7.04377 1.41962 8.26367C0.83313 10.4923 0.83313 15.1138 0.83313 15.1138C0.83313 15.1138 0.83313 19.7588 1.41962 21.964C1.74805 23.1839 2.70989 24.1457 3.92978 24.4742C6.18189 25.0841 15.073 25.0841 15.073 25.0841C15.073 25.0841 23.9876 25.0841 26.2163 24.4976C27.4362 24.1692 28.398 23.2074 28.7265 21.9875C29.3129 19.7588 29.3129 15.1373 29.3129 15.1373C29.3129 15.1373 29.3364 10.4923 28.7265 8.26367Z" fill="white"/>
<path d="M12.2344 19.383L19.6476 15.1134L12.2344 10.8438V19.383Z" fill="#201D17"/>
</g>
<defs>
<clipPath id="clip0_1297_9343">
<rect x="0.83313" y="0.87207" width="28.4799" height="28.4799" rx="5.33999" fill="white"/>
</clipPath>
</defs>
</svg>
